<svg width="22" height="22" viewBox="0 0 22 22" fill="none" xmlns="http://www.w3.org/2000/svg">
<path d="M19.0026 9.00024V6.33294C19.0026 4.86058 17.809 3.66692 16.3366 3.66692H16.3359V9.00024H19.0026Z" stroke="black" stroke-width="2" stroke-miterlimit="10" stroke-linecap="round" stroke-linejoin="round"/>
<path d="M16.3307 3.66669C16.3307 2.19404 15.1368 1.00001 13.664 1.00001H8.3307C6.85796 1.00001 5.66406 2.19404 5.66406 3.66669V18.3334H16.3307V3.66669Z" stroke="black" stroke-width="2" stroke-miterlimit="10" stroke-linecap="round" stroke-linejoin="round"/>
<path d="M8.33105 7.66675H13.6644V3.66675H8.33105V7.66675Z" stroke="black" stroke-width="2" stroke-miterlimit="10" stroke-linecap="round" stroke-linejoin="round"/>
<path d="M18.9971 21.0001C18.9971 20.2928 18.7161 19.6147 18.216 19.1144C17.7159 18.6144 17.0377 18.3334 16.3304 18.3334H5.66375C4.95653 18.3334 4.27823 18.6144 3.77815 19.1144C3.27802 19.6147 2.99707 20.2928 2.99707 21.0001H18.9971Z" stroke="black" stroke-width="2" stroke-miterlimit="10" stroke-linecap="round" stroke-linejoin="round"/>
<path d="M11.0029 10.3332C11.0029 10.3332 9.00293 11.9999 9.00293 13.6665C9.00293 14.7705 9.89907 15.6666 11.0029 15.6666C12.1068 15.6666 13.0029 14.7705 13.0029 13.6665C13.0029 11.9999 11.0029 10.3332 11.0029 10.3332Z" stroke="black" stroke-width="2" stroke-miterlimit="10" stroke-linecap="round" stroke-linejoin="round"/>
<path d="M16.3359 14.3332C16.3359 15.0696 16.9329 15.6666 17.6693 15.6666C18.4057 15.6666 19.0026 15.0696 19.0026 14.3332V8.99988" stroke="black" stroke-width="2" stroke-miterlimit="10" stroke-linecap="round" stroke-linejoin="round"/>
<path d="M1 21.0001H21" stroke="black" stroke-width="2" stroke-miterlimit="10" stroke-linecap="round" stroke-linejoin="round"/>
</svg>
